<svg width="160" height="160" viewBox="0 0 160 160" fill="none" xmlns="http://www.w3.org/2000/svg">
<path d="M52.7348 13.6389C58.5412 10.6133 64.8866 8.76088 71.4087 8.18728C85.5279 6.89611 99.1091 8.74917 110.754 17.5841C123.821 27.5189 131.173 41.4946 131.077 57.2395C131.304 82.0228 131.161 106.794 131.077 131.577C131.077 138.75 126.08 143.437 118.823 143.461C112.236 143.461 105.039 143.58 98.4398 143.461C97.9179 143.478 97.397 143.409 96.8973 143.258C96.6058 143.212 96.3382 143.069 96.1385 142.852C95.9385 142.635 95.8183 142.357 95.7975 142.062C95.8337 141.773 95.959 141.503 96.1563 141.288C96.3532 141.074 96.6126 140.926 96.8973 140.867C97.37 140.775 97.8506 140.73 98.3322 140.735C98.9777 140.735 99.5276 140.675 100.125 140.615C100.709 140.598 101.287 140.506 101.847 140.341C102.388 140.161 102.913 139.933 103.413 139.659C105.952 138.255 108.072 136.201 109.556 133.707C111.039 131.213 111.832 128.37 111.853 125.468C111.961 103.136 112.32 80.8033 111.758 58.5188C111.505 49.2421 108.463 40.2568 103.029 32.7335C97.596 25.2103 90.0225 19.4979 81.2957 16.3407C76.0252 14.5651 70.5138 13.6056 64.9531 13.4954C63.1 13.4954 60.5773 13.4954 58.7843 13.4954L52.7348 13.6389Z" fill="#EF200D"/>
<path d="M73.7759 31.1294C63.2434 32.2174 55.4727 36.9875 51.061 45.9779C49.2567 49.5936 48.261 53.5589 48.1439 57.5982C47.9528 84.3302 47.9528 111.038 48.0125 137.758C48.0125 143.174 52.4358 147.43 58.1265 147.777C59.1427 147.849 60.1468 147.849 61.1514 147.872C62.1556 147.896 63.3987 148.219 63.4107 149.295C63.4107 150.598 61.7013 150.849 61.3186 150.885H55.1259C49.4591 150.885 43.7923 150.885 38.1374 150.885C32.4826 150.885 28.8123 147.299 28.8004 141.512C28.8004 113.609 28.8004 85.7051 28.8004 57.8255C28.8243 40.7414 41.3416 28.3917 58.0787 28.1406C63.4707 27.9232 68.8409 28.9457 73.7759 31.1294Z" fill="#EF200D"/>
<path d="M108.147 81.6522C106.175 81.8078 105.852 81.8795 104.92 81.9392C102.69 82.0699 100.477 82.4021 98.308 82.9315C89.9396 85.2389 85.1575 91.0609 83.6031 100.625C82.1446 109.484 82.3122 131.099 82.2043 134.1C82.1763 134.438 82.0473 134.76 81.834 135.024C81.621 135.289 81.3336 135.483 81.009 135.582C80.6718 135.494 80.3697 135.305 80.143 135.039C79.9167 134.775 79.7764 134.447 79.7416 134.1C79.6461 131.087 79.8133 109.472 78.3429 100.625C76.7649 91.0609 72.0306 85.2389 63.638 82.9315C61.449 82.399 59.216 82.0669 56.967 81.9392C56.0225 81.9392 55.6996 81.8078 53.7271 81.6522C53.4766 81.6426 53.24 81.5341 53.0697 81.3501C52.8994 81.1664 52.8089 80.9224 52.8185 80.6719C52.828 80.4213 52.9366 80.1851 53.1205 80.0145C53.3042 79.8441 53.5482 79.7537 53.7988 79.7632C56.8977 79.6393 59.9871 79.34 63.0523 78.8666C72.6163 76.6312 77.9124 70.3903 79.0364 59.4394C79.4669 55.243 79.5146 50.9989 79.8491 46.8026C79.8491 46.6234 79.8491 46.4681 79.8491 46.3005C79.873 46.0769 79.9208 45.8564 79.9929 45.6431C80.0717 45.4291 80.1939 45.2338 80.3512 45.0693C80.4605 44.9874 80.5813 44.9226 80.71 44.8778C80.7844 44.8577 80.8629 44.8577 80.9373 44.8778C81.0117 44.8601 81.0896 44.8601 81.1643 44.8778C81.2674 44.9348 81.3636 45.0028 81.4514 45.0813C81.6128 45.2427 81.7353 45.439 81.8101 45.655C81.8855 45.868 81.9378 46.0885 81.9654 46.3124C81.9654 46.48 81.9654 46.6353 81.9654 46.8145C82.3003 51.0109 82.348 55.255 82.7785 59.4513C83.9738 70.4022 89.2699 76.6431 98.7742 78.8785C101.839 79.353 104.929 79.6526 108.028 79.7752C108.157 79.7547 108.29 79.7615 108.417 79.7953C108.544 79.8291 108.663 79.8888 108.765 79.9711C108.868 80.053 108.952 80.1558 109.013 80.2725C109.074 80.3889 109.109 80.5169 109.118 80.6483C109.126 80.7794 109.107 80.9108 109.062 81.034C109.016 81.1576 108.946 81.2699 108.854 81.3644C108.763 81.459 108.653 81.5334 108.531 81.5829C108.409 81.6324 108.279 81.6563 108.147 81.6522Z" fill="#EF200D"/>
</svg>
